<svg width="14" height="14" viewBox="0 0 14 14" fill="none" xmlns="http://www.w3.org/2000/svg">
<path d="M5.75391 11.1228C5.75391 11.7557 6.27168 12.2734 6.90451 12.2734C7.53734 12.2734 8.05511 11.7557 8.05511 11.1228C8.05511 10.49 7.53734 9.97224 6.90451 9.97224C6.27168 9.97224 5.75391 10.49 5.75391 11.1228ZM5.75391 3.06864C5.75391 3.70147 6.27168 4.21924 6.90451 4.21924C7.53734 4.21924 8.05511 3.70147 8.05511 3.06864C8.05511 2.43581 7.53734 1.91804 6.90451 1.91804C6.27168 1.91804 5.75391 2.43581 5.75391 3.06864ZM5.75391 7.09574C5.75391 7.72857 6.27168 8.24634 6.90451 8.24634C7.53734 8.24634 8.05511 7.72857 8.05511 7.09574C8.05511 6.46291 7.53734 5.94514 6.90451 5.94514C6.27168 5.94514 5.75391 6.46291 5.75391 7.09574Z" fill="white"/>
</svg>
